<svg xmlns="http://www.w3.org/2000/svg" version="1.0" viewBox="0 0 599 521" fill="currentColor">
  <path d="M127 13q-8 1-1 4l4 2h-6q-12 2-21 12l-5 6 3 2 3 1-3 1-5 1c-5 4-10 28-7 38q1 5 5 5l4 1-6 3-2 1c0 2 6 10 10 13l4 4-3 2-14 5-10 5 6 3 14 4 8 1-4 3q-25 18-41 20-8 1-4 3a68 68 0 0 0 22 9q2 1-2 3c-10 5-31 25-30 28h6l6-1q0 3-17 24-15 20-25 26-5 2-2 3c2 2 21 1 26-1l13-9q18-15 5 1-9 13-15 33-4 20-4-2 1-12-1-9-4 4-10 15-8 17-9 36c0 10 0 10 2 8l15-16 3-1-1 4a73 73 0 0 0 23 62l-1-7q-2-13 2-22l3-5 1 9q2 21 16 36 4 6 4 2c-2-6-2-15-1-15l1 1 2 3 6 8c5 7 26 27 29 27v-3l-1-8-1-5 6 8q12 18 23 25l5 2v-2c-2-4-2-16-1-17l3 4a77 77 0 0 0 39 45l-1-5-1-7q0-5 7 4a101 101 0 0 0 38 27l-5-8q-6-13-8-25-1-10 2 1c4 9 11 18 27 35l15 16v-5l-5-12-3-8a94 94 0 0 1 25 37l3 8 15-16q6-8 3 0l-1 3c2 0 14-16 22-27q4-7 4-5l-7 23c1 1 13-9 21-17 10-9 14-15 18-26q4-11 4-6l-4 23-2 6c1 1 14-6 21-12q7-5 16-18l2-2-1 5-2 8q-3 7 10-3 15-11 25-28l5-8 1 7v7a73 73 0 0 0 27-26q8-15 5 1v6l15-11c6-6 17-19 22-27l2-3v13c1 2 12-14 16-24l4-13 1-7 3 6c1 5 1 16-1 22v2l4-2q8-7 15-20 7-14 6-30 0-12 2-9l13 14q2 4 2-5c0-16-6-36-15-49-3-3-8-8-9-7l2 9 2 12-1 5-2-8-7-13-6-10-8-15q-8-15-2-9l9 6q6 5 14 9l8 5h13q12 0 13-2 2-1-1-1c-7 0-26-19-46-45l-4-5h15l-4-6c-4-6-15-16-23-21l-5-4 18-8 4-3h-3c-13-3-30-12-40-20q-4-5-1-4l20-5q3-1-8-6-8-4-15-5-7-2-3-3 6-3 11-11l3-5-3-2q-4-2 0-3l4-2q2-1 2-13a47 47 0 0 0-8-29q-2-2-7-2l-4 1 4-2 4-3q3 0-4-7-9-10-20-10-6 0-3-2l3-1 4-1-1-1-2-1c-1-2-13-2-23 0-14 2-24 8-39 20q-12 9-4 1t20-15q15-8 0-5c-13 3-32 15-40 26q-4 6-6 4l-10-1q-10 0-7-3v-3l-17 4q-12 3-5 0l4-3q2-3-2-2l-24 3q-10 3 0-3l6-3c0-2-18 1-24 4l-5 2-6-3c-8-3-18-5-22-3l-3 1 3 1 9 5h-2l-29-4-3 1 5 3 5 4-8-2c-10-3-19-5-19-3l1 2 2 2q2 3-1 1c-2-1-15-3-15-1l2 3 2 4-1-1-2-1-6-6q-11-16-29-24c-12-6-26-9-21-5q4 4-6 1c-7-2-22-3-27-2m345 29q8 4 2 4-8 2-2 3c7 0 17 13 17 24q0 8-2 1c-1-4-8-12-13-14q-4-2-13-2c-7 1-9 1-16 4l-14 7q-11 8-2-6 9-15 27-20c8-2 10-2 16-1m-323 4q13 7 20 20l3 7-6-3c-14-10-32-14-44-10q-10 4-13 14-3 9-2-1 1-12 10-20l5-5 1-1-3-1-2-1q1-3 14-3c8 1 10 1 17 4m52 7v5l-2-3-2-8v-4l2 3zm74 10c6 2 15 6 18 11q3 2 3 11 2 17 3 5 1-11 7-16c3-3 13-9 19-11q5-1-4 5 2 1 5-1 5-3 11-4c8-2 26-3 35-1 7 1 21 7 21 8l-3 1c-14 2-17 3-24 6q-7 2-13 8l-8 10-2 4 5-5q11-9 27-13c15-4 24-5 13-1l-4 2 20 1 27 1 17 4a115 115 0 0 1-29 15l-20 4q-5 3 7 2 17 1 25 6 7 5 7 9l-7-2c-8-3-22-4-29-2l-11 4q-4 3-13 5a46 46 0 0 0-30 19l6-3q12-7 29-7c9 0 11 1 14 3q6 4 3 4-4 1 2 3c4 1 14 10 14 12l-11 1-18 3c-9 2-25 10-33 16q-11 8-15 8l2-5 1-5-5 2q-17 7-18-11c0-10 7-24 13-27l2-2c0-4-20 14-27 25l-5 7-1-4c-4-15 4-47 16-60q9-10-6 3-8 7-11 16-4 11-6 6l-11-11 1 4c4 6 9 23 10 29l-1 13q-1 12-6-1-4-11-12-19-8-7-14-9l4 5q12 14 9 29-3 19-20 7-6-5-3 3l1 4c-1 1-10-3-16-8a86 86 0 0 0-46-18l-11-1 4-4 11-8 6-4h-3q-2-2 7-4c7-2 22-2 28 0l8 4 4 2-2-3q-7-12-17-19l-7-3 2 4 3 5-20-7c-8-4-9-4-24-5h-16l5-3c7-4 10-4 22-5h11l-2-2q-4-2-12-3l-15-5-15-6q-15-6-10-7l11-1 21-3q20-1 28 6 6 4-1-4l-3-4 4-1h15l11-1c-1-2-19-9-23-9q-3 0-1-1c2-3 13-6 23-7s35 0 43 1m-79 5 1 3-4-5q-1-3 3 2m7 3h-3l2-1q3 0 1 1m250 35 9 4 3 2-6-1q-11-2 4 7c14 8 36 27 36 30l-14-3-31-8q2-2 14-1h7l-3-3c-10-10-34-27-40-27l1-1q9-2 20 1m-289 0-4 2q-14 4-28 18l-9 10h11q20 0 0 4a169 169 0 0 0-36 9q1-4 13-16c6-6 11-10 29-21h-5q-13 1 0-3l10-2c4-2 19-2 19-1m35 22q14 5-5 5l-35 1 15-9c6-2 18-1 25 3m226 1 7 5 2 2h-4l-40-3q0-2 9-6l13-2c8 1 9 1 13 4m-259 16c0 1-1 2-12 8q-22 15-10 1 9-9 18-10zm275 0c4 2 15 15 13 16 0 0-26-14-27-16-2-2 11-1 14 0m-321 6-10 14-4 8h3l7-2h5l-2 2a116 116 0 0 0-25 36l4-2 18-9-7 9q-16 17-25 32c-3 6-4 6 5 3 4-2 14-4 14-3l-4 5q-20 24-18 44l1 6 4-8 8-10q7-6 5-2l-4 20c0 7 2 17 5 22q5 9 8 10l1-7c1-7 3-15 6-16q2-1 2 7c0 9 7 27 13 32l4 3 1-5 2-7q-1-6 6 5t16 19q7 5 5 13l-1 4a92 92 0 0 1-24-14c-1 1 4 14 5 16q3 4-6-2-12-7-19-17l-9-16-6-13a93 93 0 0 0 4 27q-2 0-7-6-15-13-17-34-1-14-3-13l-1 2c0 5-7 19-9 17s-4-15-4-24v-10l-4 6q-4 6-5 5c-1-2 4-17 8-23l7-16-11 4-9 4 15-22q16-19 16-25 1-3-2-3-4 2-1-3l3-4 12-19q3-4 0-3l-4 2c-3 1-15 3-16 2l11-11 17-20q12-14 20-15zm357-3q9 3 17 15l16 19 10 10h-3q-6 0-19-6-3 0 0 2l5 8 7 11q9 13 0 10l-4-1 2 3q4 10 16 21 13 14 14 20 2 6-10-1l-8-3 4 9c5 8 13 26 13 29q1 2-5-3l-6-5 1 5c3 9 0 31-4 32q-1 2-6-12l-3-6v2l-2 12a70 70 0 0 1-23 39v-28q0-3-2 4-5 20-15 32l-8 9-3 2v-3q4-11 3-14 0-6-2-1-2 6-12 11l-4 2 4-4c4-5 9-16 12-24a68 68 0 0 0 0-30c1-1 7 6 10 10q4 7 4 3c2-4 2-15 0-23l-2-9c2-1 15 11 18 17l3 3c1-1 4-10 5-17l-1-13-2-11v-4l4 4 9 10q7 12 4-5-2-18-18-38l-2-4 10 3 9 3-5-7-9-12-15-20q-10-9 6-1l9 5-4-10q-5-10-14-19l-8-8h15l-11-18-5-5q-4-3-1-2zm-282 20c3 2 3 2-9 3q-21 2-11-2 9-3 20-1m225 2c2 1 2 1-8 1q-19-1-9-3c6-1 15 0 17 1m-36 14q-1 8-9 12c-4 2-14 1-16-1q-3-3 3-6l8-4c3-3 12-6 13-5zm-160 0 5 4 6 4q5 2-5 5-10 2-16-4-5-4-3-10-1-4 5-3zm-57 7q1 1-2 5-8 14 4 4l6-4v4c0 7 3 19 5 21l8 1h7l-4-4c-4-5-8-13-6-15 1-1 15 4 15 5l-5 1-5 1 5 2 19 6h3l-4 4-13 17 4-1 4-1c2 0-9 15-16 23l-13 10-8 5-3 1a106 106 0 0 1 13-27l-32 19a66 66 0 0 1 9-22l-14 9q-10 7-12 10l-2 3v-5q2-13 16-27 10-8 4-7l-23 7-6 2c0-6 10-19 21-26l6-5-6 1-8 1q-6 3 0-4 8-8 19-13c5-2 13-3 14-1m275 1 13 6c6 5 14 13 11 12l-9-1q-11-3 2 5l10 10c5 5 10 14 10 15l-12-3-23-7 5 7c6 6 14 20 14 23l-12-4-12-6 3 7q4 11 1 11l-25-17q-7-6-1 3c5 7 12 22 11 24l-9-5-9-6 1 3 1 4q-3 2-8-11c-3-8-6-12-15-23l-1-2 6 1 5 1-7-7-12-11-6-4 8-1c7-1 17-4 19-7q2-1-3-1h-4l5-3q9-4 10 0 1 3-7 11l-4 5h15q6-3 6-18v-8l6 5 7 5c1-1-3-10-5-12-5-3 5-4 15-1m-156 1q4 1 8 5l4 3 2-3q6-6 16-7 6-1 9 2l3 1-3 2-7 7 4-1q11-3 18-2 12 3 4 5l-9 9 6-2q12-6 22 5t11 20v4l-3-4q-8-11-12-12l1 3 4 6 6 11q11 15 15 48 0 11-5-1l-4-6c-1 2 3 13 6 18q13 20 2 45l-4 7q-2 0-3-7c0-9-4-25-5-25l-1 6c0 6-2 17-4 18q-1 1-3-2l-6-8 2 6q5 11-2 2c-7-7-15-11-37-16l-10-5-2-2 3-2q3-3 8-1 6 0 11-2l4-1-4-1q-8-1 1-3 6-1 10-6 9-10 1-4l-7 4-4 1 1-4q1-6 8-16 6-9 6-18-3-24-31-31c-7-2-25-2-34 0q-31 7-35 31c0 7 1 11 8 22 4 6 7 16 5 16l-7-2q-4-3-5-2l9 9q5 3 2 4-2 1 6 3l7 2q5 2 6 5l-6 3c-12 3-28 8-31 11q-6 4-9 9-2 4-5-3-4-9-4-18l-1-5-3 5q-2 4-3 15l-2 12q-1 2-5-10c-2-8-2-10-2-28-1-19 0-20 3-32 6-25 9-33 16-40q6-5 2-4l-1-1 7-13v-1q-2 0-9 8-9 9-7 4l4-9c12-21 18-24 33-17l6 2c1-1-4-7-9-10q-5-3-2-4l8-2q7-1 12 2l6 2-3-5-3-5c0-2 9-2 16 0m34 52q18 8 19 23 0 7-4 0l-5-7q-7-3-31-4l-12-1c-1-1 10-6 15-7l5-1a95 95 0 0 0-32 1l10-6c7-2 28-1 35 2m-57 14-8 11-2 1 1-3q1-6 6-10 5-6 3 1m-73 29q0 12 4 5 4-6 2 1l-5 19-2-9q1-7-5-2-6 7-1-6c2-7 6-16 8-16zm87 8c5 5-1 5-7 0l-2-2h3zm49 0-5 3q-6 2-8-1 1-2 11-3l3-1zm80 6c2 3 4 13 3 15q0 4-5-9l-4-13q2 0 6 7m-247 12-3 10q-1 6-2-2c-1-5 2-13 6-13zm289 1q2 8-1 9-1 1-3-9 0-8 1-5 2 2 3 5m-192 31 5 6q1 5 5 10 4 4 3 9 0 8-7 7-7 1-11-11-4-7-3-13 0-7 2-9 3-4 6 1m63 0 1 2-49-1q-4-1 15-3c16-1 32 0 33 2m24 0q3 2 2 7 0 13-7 21l-6 4q-3 0-7-6-3-2 1-8l7-12q4-13 10-6m97 9q0 12-7 25c-4 9-12 19-13 19l-2-7-1-10-1 2q-1 7-8 16-5 5-9 13c-4 7-12 18-14 18v-3l6-25c2-5 5-19 5-26l1-4 1 2 5 12 3-5c2-4 3-6 3-16v-12l11 13 2 2 17-18zm-261 4 2 5 4 10q8 29 12 33 5 6 4 0c0-3 4-13 5-13v19l-1 13c-2 0-16-18-20-24l-6-14-3-8-1 11c0 11 0 11-2 10-5-8-9-23-6-28l11-16zm54 11q3 19 11 22 9 3 26-2c10-3 11-3 27-3s17 0 31 3c14 4 15 4 20 3 7-2 9-5 14-20q3-14 5 3l-1 13c-2 7-9 23-13 29l-3 4v-7q1-16-5-3l-18 28-3 4v-3l2-11 2-9-6 7-14 17-9 10q-2 5-4-6l-5-11-15-20 4 8 8 23q0 3-5-4l-8-11q-7-8-10-15-1-3-2-2l3 17h-2l-9-17-8-14-1 10 1 9-2-3c-6-7-16-35-16-44 0-4 3-13 4-13zm50-3q5 3 10 1h6q2 2 9-1h8q5 5 3 8h-7l-22-1-16 1v-2q0-3 3-5 3-3 6-1m-37 8 4 8q3 3 0 3-4-1-7-9l-2-6 1-2zm105-1q-1 11-6 11t-2-2l5-7 3-7zM233 71c1 1 19 7 20 6l-10-6zm265 250-2 9q0 9 1 5l3-17zm-135-61 3 8 1 2 1-1c0-3-3-10-5-12q-4-7 0 3m-144 34c-3 11-4 14-4 20q0 7 1 4c3-10 5-22 5-26l-1-3zm19 29q-3 5-4 10 0 3 2-1l4-6 1-3q0-3-3 0m41 74-8 5c4-2 22-3 29-3q8 2 5-1c-5-3-17-4-26-1"/>
</svg>
