<?xml version="1.0" standalone="no"?>
<!DOCTYPE svg PUBLIC "-//W3C//DTD SVG 20010904//EN"
 "http://www.w3.org/TR/2001/REC-SVG-20010904/DTD/svg10.dtd">
<svg version="1.0" xmlns="http://www.w3.org/2000/svg"
 width="599.000000pt" height="521.000000pt" viewBox="0 0 599.000000 521.000000"
 preserveAspectRatio="xMidYMid meet">
<metadata>
Created by potrace 1.16, written by Peter Selinger 2001-2019
</metadata>
<g transform="translate(0.000000,521.000000) scale(0.100000,-0.100000)"
fill="#000000" stroke="none">
<path d="M1265 5083 c-50 -8 -52 -21 -5 -42 l43 -19 -59 -7 c-81 -9 -156 -49
-215 -113 -27 -29 -49 -57 -49 -61 0 -3 15 -13 33 -20 l32 -14 -35 -6 c-20 -4
-41 -11 -48 -15 -55 -34 -100 -275 -71 -378 9 -34 14 -39 49 -44 22 -4 40 -10
40 -14 0 -9 -46 -30 -65 -30 -8 0 -15 -4 -15 -8 0 -18 59 -100 98 -134 23 -21
42 -40 42 -42 0 -3 -15 -8 -32 -11 -18 -4 -80 -30 -137 -58 l-104 -49 59 -24
c32 -14 95 -32 140 -41 l81 -17 -36 -25 c-169 -116 -298 -179 -416 -202 -55
-11 -58 -12 -40 -26 33 -26 162 -83 187 -83 13 0 29 -4 37 -9 11 -7 6 -13 -20
-26 -100 -52 -312 -255 -295 -283 3 -6 26 -5 56 1 28 5 53 7 57 4 8 -9 -58
-104 -167 -241 -103 -129 -191 -217 -254 -255 -33 -21 -36 -25 -21 -34 23 -12
219 -3 268 14 20 7 78 45 128 86 125 100 133 99 51 -9 -59 -79 -114 -202 -148
-331 -33 -131 -48 -124 -42 23 3 91 2 97 -14 86 -30 -21 -57 -62 -98 -148 -56
-116 -81 -221 -86 -353 -3 -106 -3 -109 14 -85 30 44 126 142 154 156 l26 14
-10 -38 c-13 -46 -4 -179 17 -263 23 -93 97 -236 156 -302 28 -31 54 -57 58
-57 4 0 2 33 -6 72 -17 88 -12 146 19 218 l24 54 12 -93 c21 -153 64 -252 159
-356 36 -41 44 -45 39 -25 -14 58 -19 150 -7 150 6 0 11 -4 11 -9 0 -4 10 -19
23 -33 12 -13 37 -47 55 -75 48 -75 260 -273 293 -273 4 0 4 15 -1 33 -4 17
-11 54 -14 82 l-6 49 57 -84 c77 -112 170 -210 234 -245 l52 -28 -8 24 c-13
38 -18 160 -7 171 6 6 16 -10 27 -44 46 -143 139 -268 275 -373 49 -37 111
-75 123 -75 3 0 -2 22 -10 50 -8 27 -13 61 -11 74 3 23 9 18 63 -46 70 -84
187 -174 298 -230 44 -21 80 -38 82 -36 2 2 -17 37 -41 78 -46 78 -78 171 -88
253 -7 63 6 60 28 -8 31 -90 102 -185 265 -352 l154 -158 -7 43 c-3 23 -22 77
-42 119 -19 42 -33 80 -32 85 5 15 126 -136 178 -222 26 -43 58 -113 70 -154
13 -42 27 -76 31 -76 8 0 103 101 151 160 36 46 47 46 23 1 -8 -17 -11 -31 -6
-31 20 0 144 156 218 272 24 40 42 64 39 53 -3 -11 -12 -47 -20 -81 -9 -33
-22 -80 -31 -104 -8 -24 -13 -45 -11 -48 8 -7 127 89 206 168 95 94 135 151
182 265 31 75 37 85 38 57 0 -56 -21 -174 -42 -230 -11 -29 -18 -57 -16 -62 4
-13 136 65 210 124 52 41 91 85 154 172 l21 29 -7 -55 c-5 -30 -13 -67 -19
-82 -16 -42 4 -36 100 30 98 68 187 169 251 283 24 43 47 79 52 79 5 0 6 -31
4 -70 -3 -38 -3 -70 -1 -70 2 0 30 18 61 39 77 53 137 118 208 225 65 98 74
96 55 -10 -6 -32 -9 -60 -6 -62 7 -8 75 40 153 109 66 58 172 187 217 267 11
17 23 32 27 32 11 0 10 -48 -2 -89 -5 -19 -8 -37 -5 -39 18 -18 128 141 169
243 14 36 29 93 33 126 3 33 10 62 14 65 5 2 16 -21 25 -52 16 -57 16 -166 -2
-223 l-7 -23 40 26 c49 32 116 120 154 201 46 99 63 178 62 292 -1 92 1 102
16 94 20 -12 113 -108 135 -141 16 -24 16 -22 16 52 0 154 -63 355 -151 484
-26 39 -76 80 -85 71 -2 -2 5 -41 16 -86 12 -46 20 -102 18 -125 l-3 -41 -29
79 c-16 43 -44 101 -63 130 -20 28 -46 74 -60 101 -14 28 -50 94 -80 148 -56
99 -62 126 -19 91 13 -10 50 -41 82 -67 33 -26 97 -67 143 -90 l85 -42 122 0
c85 0 127 4 136 13 9 9 7 12 -13 12 -73 0 -264 189 -456 450 l-40 55 73 -3
c41 -3 74 -1 74 3 0 4 -16 29 -36 56 -41 56 -154 156 -238 211 -33 21 -52 38
-44 38 21 0 122 47 177 81 l43 28 -28 6 c-131 27 -300 112 -400 199 -37 33
-38 35 -15 36 35 0 176 39 196 54 15 10 4 18 -73 54 -50 23 -117 48 -149 55
-55 13 -57 14 -34 26 39 21 79 62 112 113 18 27 30 50 28 51 -2 2 -17 8 -32
15 -30 13 -28 32 2 32 10 0 26 9 37 21 16 18 19 37 19 133 0 91 -4 125 -25
186 -13 41 -35 86 -48 99 -20 20 -30 23 -70 17 l-47 -6 40 25 c22 14 43 25 48
25 17 0 4 21 -42 72 -61 67 -128 101 -198 102 -44 1 -50 3 -38 15 7 7 25 14
39 14 15 0 29 3 32 8 3 5 -1 9 -10 9 -8 0 -16 5 -18 11 -7 20 -130 22 -229 4
-139 -25 -242 -80 -390 -207 -68 -59 -98 -63 -44 -7 51 53 123 106 207 152 99
55 99 70 0 46 -133 -32 -322 -151 -403 -254 -34 -42 -49 -53 -64 -49 -11 3
-53 8 -93 11 -76 6 -92 14 -72 38 10 12 9 16 -4 21 -21 8 -75 -2 -165 -32 -77
-26 -103 -26 -54 0 16 8 35 22 42 30 12 14 10 16 -15 16 -52 0 -208 -20 -241
-31 -66 -21 -69 -4 -6 27 35 16 63 33 63 37 0 19 -179 -13 -245 -43 l-42 -19
-63 25 c-83 34 -180 50 -222 37 l-33 -10 30 -12 c48 -18 95 -45 95 -53 0 -4
-10 -4 -22 1 -38 14 -250 43 -288 39 l-35 -3 53 -34 c28 -18 52 -37 52 -41 0
-5 -38 4 -83 19 -96 33 -187 48 -187 33 0 -6 4 -14 10 -17 5 -3 15 -15 21 -26
10 -19 9 -20 -10 -9 -25 13 -151 26 -151 15 0 -4 9 -20 21 -37 12 -16 18 -32
15 -35 -3 -4 -6 -1 -6 5 0 6 -10 12 -22 14 -13 2 -37 25 -60 58 -78 113 -167
188 -291 245 -116 53 -261 82 -205 41 31 -23 9 -24 -65 -4 -72 19 -216 31
-272 21z m3454 -297 c56 -16 62 -32 17 -40 -43 -8 -56 -23 -20 -23 77 0 174
-134 174 -239 0 -58 -14 -65 -25 -15 -8 39 -77 116 -123 138 -27 13 -62 18
-127 18 -80 0 -99 -4 -168 -34 -44 -18 -104 -51 -135 -72 -73 -48 -79 -33 -23
60 58 98 151 167 276 202 74 22 98 22 154 5z m-3234 -36 c87 -42 163 -117 204
-204 17 -35 31 -67 31 -70 0 -4 -27 11 -59 33 -142 97 -321 136 -440 96 -58
-19 -112 -73 -131 -131 -21 -66 -33 -65 -25 1 9 82 44 155 101 209 26 25 51
46 56 46 4 0 8 5 8 10 0 6 -11 10 -25 10 -14 0 -25 4 -25 9 0 19 58 30 145 28
78 -3 99 -7 160 -37z m522 -74 l3 -51 -16 35 c-9 19 -19 53 -21 75 l-5 40 18
-24 c9 -13 19 -47 21 -75z m739 -99 c66 -14 150 -62 188 -107 19 -23 24 -43
28 -115 7 -108 23 -131 30 -43 6 73 24 113 71 161 31 30 129 84 187 102 26 8
23 5 -39 -42 -2 -2 -2 -5 1 -8 3 -3 25 6 49 19 25 14 74 32 109 40 76 18 255
21 349 5 68 -11 211 -65 211 -79 0 -5 -15 -11 -32 -14 -136 -21 -172 -29 -238
-53 -62 -23 -85 -38 -131 -85 -30 -32 -66 -77 -79 -101 l-23 -42 54 51 c74 71
146 108 264 138 153 38 245 42 133 6 -21 -6 -40 -15 -42 -19 -3 -4 88 -9 202
-10 114 -1 236 -6 273 -11 105 -15 170 -31 164 -41 -4 -5 -56 -39 -118 -75
-88 -52 -125 -68 -172 -75 -105 -15 -165 -28 -192 -43 -25 -13 -21 -14 68 -21
116 -8 186 -25 244 -60 43 -25 83 -70 73 -81 -3 -3 -34 5 -69 16 -80 27 -218
37 -290 20 -30 -7 -77 -25 -105 -41 -29 -15 -89 -37 -135 -49 -112 -27 -183
-64 -246 -129 -29 -29 -53 -57 -53 -61 0 -5 26 7 58 26 93 57 175 77 295 72
85 -3 108 -7 140 -26 38 -25 48 -42 22 -42 -29 0 -14 -17 28 -31 41 -13 137
-95 137 -116 0 -6 -46 -13 -112 -17 -62 -4 -142 -14 -178 -23 -93 -22 -253
-102 -335 -167 -63 -51 -129 -85 -141 -73 -3 2 3 23 12 46 9 23 14 44 12 47
-3 2 -25 -5 -49 -16 -111 -50 -179 -7 -179 114 0 91 70 239 125 264 14 6 25
16 25 22 0 44 -200 -139 -271 -249 l-47 -73 -11 38 c-43 153 43 472 161 600
64 70 25 51 -58 -28 -61 -58 -83 -88 -116 -157 -41 -84 -42 -84 -57 -60 -19
31 -99 109 -110 109 -5 0 1 -19 14 -42 31 -57 83 -224 91 -291 4 -30 1 -86 -6
-126 -14 -84 -23 -83 -60 6 -33 82 -64 130 -124 191 -43 46 -110 92 -131 92
-4 0 12 -21 36 -47 79 -89 110 -191 90 -298 -22 -118 -86 -140 -196 -66 -49
33 -53 29 -30 -26 9 -20 12 -40 8 -44 -12 -12 -100 33 -165 84 -126 99 -302
166 -461 175 l-108 7 43 47 c27 30 68 60 112 81 49 24 64 36 52 40 -9 4 -16 2
-16 -4 0 -6 -5 -7 -11 -3 -18 11 11 31 70 48 71 21 224 21 282 1 24 -9 61 -27
83 -41 l38 -26 -18 32 c-41 70 -113 147 -174 187 -35 23 -66 40 -69 38 -2 -3
8 -23 23 -46 15 -22 25 -43 23 -45 -6 -6 -89 24 -195 71 -82 36 -88 37 -240
44 l-157 6 45 24 c69 37 97 43 220 50 l114 6 -27 18 c-16 10 -67 24 -115 31
-57 9 -108 24 -148 44 -33 17 -103 47 -155 67 -104 41 -132 59 -96 61 12 1 59
9 105 17 46 9 141 19 211 23 142 8 218 -7 279 -52 44 -34 41 -9 -4 37 l-37 38
39 7 c22 4 91 8 156 8 64 1 114 5 111 9 -11 19 -197 87 -237 87 -15 0 -16 3
-6 15 18 21 131 54 225 65 103 11 353 4 431 -13z m-782 -47 c9 -17 13 -30 9
-30 -11 0 -37 31 -46 52 -10 28 17 11 37 -22z m66 -30 c-19 -13 -30 -13 -30 0
0 6 10 10 23 10 18 0 19 -2 7 -10z m2495 -351 c37 -11 80 -28 96 -38 l29 -18
-58 5 c-69 5 -64 -2 43 -68 132 -82 355 -270 355 -301 0 -13 -3 -13 -145 30
-71 22 -169 47 -217 56 -49 10 -88 21 -88 26 0 14 68 21 138 14 l67 -7 -30 32
c-94 100 -337 268 -393 271 -11 1 -8 4 8 9 46 15 127 10 195 -11z m-2885 0 c0
-3 -19 -12 -42 -19 -102 -30 -181 -81 -276 -177 -52 -52 -92 -96 -90 -98 2 -2
49 -5 106 -6 128 -3 131 -20 6 -35 -88 -12 -284 -64 -336 -91 -16 -7 -28 -10
-28 -5 0 17 59 88 131 159 63 60 113 98 285 211 16 10 8 11 -51 6 -82 -7 -82
-2 0 21 33 9 80 23 105 30 44 14 190 17 190 4z m347 -215 c89 -46 82 -54 -49
-55 -62 0 -166 -4 -231 -7 -64 -4 -117 -5 -117 -2 0 9 106 71 147 86 63 24
181 13 250 -22z m2263 -11 c25 -17 54 -41 65 -53 l20 -23 -40 6 c-22 4 -118
11 -213 16 -96 5 -176 11 -178 14 -9 9 39 41 88 58 39 14 75 18 133 16 71 -3
86 -7 125 -34z m-2590 -162 c0 -13 -15 -23 -120 -83 -163 -94 -168 -95 -101
-10 46 57 126 102 183 102 21 0 38 -4 38 -9z m2752 -5 c37 -20 144 -143 133
-154 -4 -4 -262 142 -279 159 -16 15 116 10 146 -5z m-3211 -58 c-33 -33 -70
-85 -97 -137 l-44 -83 27 6 c16 3 51 9 78 12 l50 7 -26 -21 c-47 -38 -135
-155 -193 -256 -31 -54 -54 -101 -51 -104 3 -3 18 4 33 15 35 26 167 93 183
93 6 0 -27 -40 -74 -89 -94 -99 -195 -230 -245 -316 -35 -63 -37 -61 48 -30
41 16 140 36 140 29 0 -1 -19 -24 -42 -51 -131 -151 -199 -321 -180 -448 l8
-50 41 71 c23 39 60 87 83 107 43 40 67 48 55 20 -23 -54 -45 -155 -45 -206 0
-68 22 -162 52 -221 20 -41 66 -96 78 -96 4 0 10 34 13 75 6 69 32 145 56 159
11 7 21 -27 21 -74 0 -92 71 -272 127 -320 19 -17 38 -30 43 -30 5 0 11 21 15
48 3 26 9 60 13 76 7 29 8 28 60 -51 55 -83 99 -135 165 -191 46 -39 58 -69
50 -127 -3 -25 -7 -45 -8 -45 -19 0 -152 71 -193 102 -29 22 -54 39 -56 37 -6
-6 42 -139 55 -156 23 -27 2 -22 -56 13 -81 49 -156 114 -198 172 -18 26 -57
101 -86 167 -29 66 -55 122 -58 125 -10 11 11 -187 24 -224 7 -22 11 -41 9
-44 -3 -2 -32 22 -66 54 -95 90 -150 204 -170 349 -14 100 -20 125 -31 125 -5
0 -9 -7 -9 -15 0 -51 -74 -196 -90 -178 -21 23 -42 158 -38 248 2 52 3 95 2
95 0 0 -21 -28 -44 -62 -24 -34 -45 -57 -48 -50 -7 21 40 170 74 233 69 130
78 149 71 155 -4 4 -49 -14 -102 -39 -52 -25 -95 -42 -95 -38 0 15 96 155 151
221 100 118 159 210 159 248 0 27 -3 33 -16 28 -30 -12 -34 6 -9 36 14 16 25
34 25 39 0 10 87 149 120 192 18 23 19 27 5 27 -9 0 -29 -7 -45 -15 -29 -15
-151 -37 -160 -29 -2 3 46 55 107 117 60 62 138 149 172 194 69 90 147 149
201 152 8 1 -9 -23 -39 -51z m3569 31 c69 -31 106 -64 170 -151 33 -45 105
-128 161 -185 l102 -103 -35 0 c-29 0 -105 22 -193 56 -20 7 -19 7 1 -17 11
-13 35 -51 54 -84 18 -33 48 -82 67 -108 63 -90 63 -116 -2 -98 l-35 9 17 -31
c32 -64 78 -124 159 -208 89 -94 131 -153 141 -199 7 -40 -5 -39 -94 7 -40 20
-75 34 -79 31 -3 -4 14 -43 40 -86 49 -83 126 -263 126 -293 0 -13 -14 -4 -52
32 -28 27 -53 48 -54 46 -2 -2 2 -21 8 -43 27 -93 -3 -314 -43 -322 -15 -3
-24 15 -61 121 -11 31 -24 57 -28 57 -4 0 -6 -9 -3 -20 3 -11 -5 -63 -17 -116
-30 -132 -92 -252 -171 -332 -34 -34 -63 -61 -64 -60 -2 2 1 23 5 48 11 53 11
194 1 230 -6 20 -9 15 -20 -35 -28 -121 -88 -254 -148 -327 -31 -38 -69 -78
-86 -90 l-30 -21 7 29 c21 88 25 112 26 147 0 42 -15 50 -24 12 -9 -36 -60
-90 -112 -119 -24 -13 -44 -22 -44 -19 0 3 16 24 36 45 43 48 97 159 119 243
17 67 20 203 5 254 -5 19 -8 37 -5 39 10 10 77 -54 106 -101 31 -51 32 -51 42
-27 15 38 12 146 -7 234 -10 43 -15 80 -12 83 17 17 148 -103 180 -166 9 -17
21 -29 26 -26 14 9 39 100 46 169 3 33 1 90 -6 126 -6 36 -14 85 -17 110 l-5
45 46 -45 c26 -25 65 -71 87 -104 48 -72 58 -58 40 53 -21 123 -75 237 -180
378 -14 18 -22 36 -18 39 3 4 46 -7 94 -24 48 -17 89 -29 92 -27 2 2 -21 31
-50 64 -30 32 -69 85 -88 118 -41 68 -86 128 -155 201 -60 64 -46 66 66 10 46
-24 87 -45 92 -47 5 -2 -16 43 -45 100 -43 82 -71 122 -135 188 l-82 84 74 -7
c41 -4 74 -3 73 1 0 14 -83 150 -109 179 -14 16 -38 39 -54 52 -23 18 -25 22
-10 22 11 0 39 -10 64 -21z m-2825 -203 c38 -11 36 -12 -84 -24 -136 -13 -167
-8 -106 20 46 20 131 22 190 4z m2257 -11 c22 -16 19 -17 -85 -12 -118 6 -156
18 -92 29 63 10 151 2 177 -17z m-362 -145 c0 -46 -41 -100 -90 -120 -43 -18
-139 -8 -156 15 -20 27 -18 30 28 51 24 10 58 32 76 48 31 28 118 59 135 49 4
-2 7 -22 7 -43z m-1605 2 c16 -15 41 -34 55 -41 14 -7 39 -23 55 -37 36 -29
28 -37 -49 -54 -63 -13 -119 2 -157 42 -30 33 -37 56 -30 102 4 28 5 28 49 22
31 -4 57 -16 77 -34z m-561 -70 c2 -4 -9 -29 -25 -55 -53 -86 -37 -102 42 -41
l59 45 0 -40 c0 -68 29 -195 47 -208 10 -8 47 -13 87 -13 l70 0 -43 44 c-43
44 -79 130 -62 149 9 9 151 -41 151 -54 0 -4 -24 -9 -52 -11 l-53 -3 50 -23
c44 -20 98 -36 198 -57 l28 -6 -44 -40 c-39 -34 -127 -154 -127 -172 0 -3 16
1 35 9 19 7 39 14 45 14 18 0 -89 -148 -162 -225 -36 -38 -92 -85 -125 -104
-32 -19 -70 -42 -85 -53 -16 -10 -28 -14 -28 -8 0 23 72 185 101 226 16 23 29
45 29 48 0 6 -158 -90 -259 -157 -30 -20 -56 -35 -58 -33 -7 6 38 133 61 174
14 23 23 42 21 42 -10 0 -85 -46 -140 -86 -76 -55 -96 -73 -119 -104 l-18 -25
5 44 c10 78 71 185 153 267 70 69 73 74 47 74 -29 -1 -125 -31 -230 -73 -41
-16 -63 -21 -63 -14 1 53 104 184 205 262 l60 46 -55 -7 c-30 -4 -66 -11 -79
-16 -37 -13 -36 -3 4 46 41 50 110 98 182 126 49 19 138 26 147 12z m2749 -12
c38 -12 90 -38 124 -64 63 -47 138 -122 112 -113 -8 3 -47 8 -85 12 -77 8 -77
9 12 -58 34 -25 82 -69 107 -97 44 -49 101 -139 93 -147 -2 -2 -54 12 -116 32
-116 38 -213 65 -232 65 -6 0 18 -30 53 -68 60 -63 139 -197 139 -235 0 -11
-35 3 -116 45 -63 33 -117 58 -119 56 -2 -2 7 -34 20 -71 24 -66 31 -107 19
-107 -10 0 -205 130 -251 167 -50 40 -55 32 -14 -25 49 -67 122 -225 109 -237
-2 -2 -41 20 -88 50 -47 30 -86 52 -88 51 -1 -2 3 -15 9 -30 7 -14 9 -29 5
-33 -16 -16 -41 18 -76 104 -33 83 -56 119 -147 232 -16 19 -21 31 -13 26 8
-5 37 -12 63 -15 l48 -7 -68 70 c-37 38 -93 88 -123 110 l-55 42 75 6 c75 6
168 38 191 65 9 12 5 14 -27 15 l-39 0 49 25 c57 28 84 30 92 9 10 -25 -14
-69 -62 -116 -24 -24 -44 -47 -44 -51 0 -12 112 -10 148 3 46 16 66 76 59 179
-3 44 -1 80 3 80 5 0 33 -23 64 -51 31 -28 60 -49 66 -47 12 4 -31 98 -54 117
-42 35 57 42 157 11z m-1568 -5 c28 -9 65 -30 85 -50 l35 -35 29 31 c41 43 82
61 151 67 46 3 70 0 94 -13 l33 -17 -28 -18 c-27 -16 -83 -70 -73 -70 2 0 20
5 39 11 68 22 125 27 180 17 79 -14 89 -26 41 -50 -32 -16 -104 -88 -88 -88 3
0 29 11 58 25 83 38 150 22 221 -52 62 -64 108 -150 108 -202 l0 -45 -32 45
c-44 62 -100 119 -116 119 -9 0 -6 -10 11 -30 14 -16 28 -43 32 -60 4 -18 31
-65 60 -105 82 -115 127 -258 151 -484 8 -77 -2 -75 -47 10 -18 32 -34 57 -36
55 -13 -13 23 -122 58 -176 87 -134 91 -284 14 -452 -14 -32 -30 -60 -35 -63
-13 -8 -26 25 -28 70 -4 89 -38 245 -54 245 -5 0 -8 -26 -8 -57 0 -64 -22
-169 -38 -185 -8 -8 -16 -2 -29 21 -24 43 -54 83 -60 78 -2 -2 5 -28 17 -56
29 -75 25 -79 -24 -24 -69 76 -150 113 -371 168 -46 12 -78 26 -93 43 l-23 25
27 18 c22 14 40 17 88 12 47 -4 70 -1 101 13 l40 18 -37 4 c-53 5 -47 18 14
33 41 9 63 23 101 62 53 55 56 73 5 34 -18 -14 -50 -30 -70 -35 l-36 -10 5 37
c6 37 39 103 79 157 48 63 67 122 60 188 -16 151 -127 265 -303 311 -74 19
-257 19 -348 0 -196 -41 -328 -164 -341 -318 -7 -71 6 -107 75 -220 37 -60 66
-157 48 -157 -4 0 -31 11 -62 24 -30 14 -55 22 -55 19 0 -17 48 -67 87 -90 41
-24 44 -28 28 -39 -15 -11 -8 -15 50 -33 37 -12 72 -21 78 -21 13 0 57 -40 57
-51 0 -5 -26 -16 -57 -24 -124 -34 -280 -89 -313 -110 -37 -24 -71 -60 -90
-94 -14 -27 -26 -20 -49 32 -31 70 -40 109 -42 174 -1 34 -5 61 -8 58 -4 -2
-17 -24 -30 -50 -17 -34 -25 -75 -33 -158 -5 -61 -11 -114 -14 -116 -9 -9 -23
21 -51 104 -25 76 -27 91 -27 275 -1 188 0 199 32 325 63 248 96 329 162 391
41 39 51 58 25 48 -9 -4 -15 -1 -15 7 0 16 59 122 74 131 7 5 5 8 -6 8 -9 0
-48 -34 -87 -76 -67 -72 -71 -74 -71 -47 0 15 18 59 40 97 121 207 182 239
329 171 30 -14 56 -23 59 -21 9 10 -43 70 -85 96 -37 24 -41 29 -28 40 8 7 46
15 83 17 53 4 78 1 121 -16 29 -12 56 -19 59 -16 3 3 -9 23 -26 44 -18 22 -32
44 -32 50 0 23 87 26 155 6z m346 -524 c107 -40 189 -142 189 -233 0 -49 -12
-48 -36 3 -10 24 -33 51 -54 64 -45 30 -159 48 -312 49 -64 1 -119 4 -122 7
-9 9 101 56 149 65 22 3 47 10 55 15 22 12 -216 11 -269 -2 -24 -5 -46 -8 -48
-5 -8 8 48 39 95 53 73 20 282 11 353 -16z m-576 -137 c-17 -42 -45 -82 -75
-109 l-21 -19 7 29 c10 42 28 75 59 108 36 37 48 34 30 -9z m-722 -289 c-6
-82 2 -93 35 -50 27 34 31 32 22 -12 -16 -85 -44 -193 -51 -193 -8 0 -19 52
-19 95 0 46 -10 49 -47 13 -39 -38 -39 -35 -13 66 17 62 62 156 76 156 1 0 0
-34 -3 -75z m864 -89 c54 -47 -7 -43 -67 4 l-25 20 32 0 c20 0 43 -9 60 -24z
m489 5 c-10 -11 -31 -25 -47 -31 -30 -13 -79 -7 -79 10 0 9 51 26 105 33 17 2
32 5 34 6 2 0 -4 -8 -13 -18z m805 -63 c18 -33 38 -129 31 -149 -6 -16 -18 5
-53 94 -25 63 -43 120 -41 126 4 11 41 -31 63 -71z m-2472 -123 c-10 -31 -21
-71 -25 -90 -8 -43 -20 -37 -29 14 -8 50 29 131 60 131 9 0 8 -14 -6 -55z
m2892 -5 c12 -39 6 -90 -10 -90 -13 0 -19 21 -27 92 -7 58 -6 62 9 49 9 -7 22
-30 28 -51z m-1919 -307 c14 -16 34 -46 43 -68 9 -22 32 -63 52 -92 32 -47 35
-57 29 -95 -9 -56 -21 -68 -66 -68 -53 0 -84 29 -115 109 -23 57 -27 81 -23
135 3 45 10 71 22 85 24 27 27 26 58 -6z m630 -1 c6 -6 9 -14 6 -17 -8 -8
-478 -6 -491 2 -23 14 37 27 153 32 158 7 316 -1 332 -17z m233 3 c21 -20 25
-34 25 -79 0 -80 -28 -163 -71 -208 -20 -21 -45 -38 -56 -38 -24 0 -54 24 -76
60 -15 24 -14 28 18 79 19 30 46 85 61 123 34 90 58 105 99 63z m975 -97 c0
-67 -27 -166 -70 -253 -40 -85 -116 -189 -130 -180 -5 3 -12 31 -16 63 -9 75
-12 94 -19 100 -3 3 -5 -4 -5 -16 0 -37 -37 -108 -83 -160 -25 -28 -64 -86
-86 -129 -38 -73 -123 -183 -141 -183 -4 0 -4 15 1 33 4 17 15 69 24 114 9 46
25 104 36 130 23 52 49 192 49 261 0 23 5 42 10 42 6 0 10 -7 10 -15 0 -25 41
-125 51 -125 6 0 20 21 32 48 19 40 22 65 22 165 0 64 3 117 7 117 8 0 78 -86
106 -130 12 -19 22 -28 22 -20 0 15 158 180 172 180 5 0 8 -19 8 -42z m-2610
-36 c0 -9 9 -34 19 -53 11 -20 27 -63 36 -95 51 -183 98 -310 126 -336 35 -35
39 -35 39 1 0 33 38 131 52 131 4 0 5 -12 1 -27 -5 -16 -8 -88 -8 -161 0 -72
-3 -132 -7 -132 -14 0 -158 176 -201 244 -16 25 -40 86 -54 136 -14 49 -30 87
-34 84 -5 -3 -9 -56 -9 -117 -1 -104 -2 -111 -16 -92 -57 72 -92 222 -64 276
26 50 102 159 111 159 5 0 9 -8 9 -18z m541 -114 c18 -132 49 -197 104 -218
53 -20 155 -11 265 22 100 31 113 32 270 33 160 0 169 -1 310 -38 135 -36 149
-38 197 -27 74 16 95 47 138 203 24 86 40 75 51 -36 4 -43 1 -81 -11 -126 -18
-72 -88 -228 -129 -287 l-26 -39 0 70 c0 103 -11 108 -53 23 -36 -74 -135
-229 -181 -283 l-25 -30 -1 30 c0 17 9 64 20 104 12 41 20 81 18 89 -2 8 -29
-22 -63 -69 -33 -46 -94 -120 -136 -164 -41 -44 -81 -91 -88 -104 -16 -29 -23
-21 -45 54 -10 33 -32 85 -49 115 -28 50 -147 210 -147 197 0 -2 16 -37 35
-75 33 -68 85 -208 85 -231 0 -22 -18 -10 -50 37 -19 26 -57 75 -85 109 -50
61 -74 101 -96 158 -6 17 -13 24 -16 18 -5 -14 13 -139 24 -170 6 -17 5 -17
-16 1 -12 11 -54 84 -94 163 -40 79 -76 143 -80 143 -5 0 -6 -44 -2 -97 l7
-98 -25 33 c-58 76 -157 356 -157 442 0 37 28 135 37 127 2 -3 9 -38 14 -79z
m499 27 c30 -17 74 -19 101 -4 14 7 29 7 54 -2 29 -11 42 -10 90 6 50 18 59
18 82 5 31 -17 52 -68 34 -80 -7 -4 -38 -3 -69 3 -31 5 -130 6 -219 3 l-163
-7 0 25 c0 15 11 33 26 45 31 25 32 25 64 6z m-374 -76 c16 -34 37 -71 47 -83
18 -20 18 -21 1 -25 -24 -4 -60 42 -73 94 -6 24 -13 50 -17 59 -3 9 -2 16 3
16 5 0 23 -28 39 -61z m1053 12 c-11 -71 -34 -111 -64 -111 -25 0 -33 14 -15
25 5 3 26 35 46 70 19 36 37 65 38 65 2 0 0 -22 -5 -49z M2334 4503 c9 -10
190 -73 194 -68 7 6 -64 53 -97 64 -38 12 -109 15 -97 4z M4980 2003 c-7 -16
-14 -59 -17 -98 -4 -64 -3 -68 10 -45 11 20 31 170 22 170 -1 0 -8 -12 -15
-27z M3630 2610 c16 -33 30 -69 30 -80 0 -11 5 -20 10 -20 6 0 10 6 10 14 0
23 -28 95 -47 121 -32 44 -34 26 -3 -35z M2188 2270 c-33 -107 -38 -136 -37
-200 1 -53 3 -60 9 -35 28 96 51 220 48 252 l-4 38 -16 -55z M2383 1978 c-25
-27 -43 -70 -43 -101 1 -17 6 -13 22 18 11 22 27 48 35 57 8 9 13 24 11 33 -2
14 -6 13 -25 -7z M2790 1239 c-30 -11 -63 -23 -72 -26 -10 -3 -18 -10 -18 -15
0 -6 6 -8 13 -5 35 13 216 29 284 25 66 -5 74 -3 58 8 -52 39 -179 45 -265 13z"/>
</g>
</svg>
