<?xml version="1.0" standalone="no"?>
<!DOCTYPE svg PUBLIC "-//W3C//DTD SVG 20010904//EN"
 "http://www.w3.org/TR/2001/REC-SVG-20010904/DTD/svg10.dtd">
<svg version="1.0" xmlns="http://www.w3.org/2000/svg"
 width="619.000000pt" height="498.000000pt" viewBox="0 0 619.000000 498.000000"
 preserveAspectRatio="xMidYMid meet">
<metadata>
Created by potrace 1.16, written by Peter Selinger 2001-2019
</metadata>
<g transform="translate(0.000000,498.000000) scale(0.100000,-0.100000)"
fill="#000000" stroke="none">
<path d="M1480 4853 c-8 -3 -27 -17 -42 -31 -46 -42 -36 -135 20 -185 11 -10
79 -36 152 -58 208 -62 348 -141 518 -289 136 -119 287 -322 386 -518 45 -90
30 -94 -45 -11 l-55 62 -37 -33 c-20 -17 -59 -66 -87 -108 -66 -101 -69 -104
-89 -97 -9 3 -56 30 -106 59 -826 486 -1334 735 -1649 810 -195 47 -243 48
-288 7 -32 -29 -33 -31 -32 -108 2 -123 71 -316 130 -362 32 -25 92 -43 229
-67 l100 -18 -139 -8 c-77 -4 -144 -12 -149 -17 -24 -24 147 -217 200 -227 18
-3 38 -13 44 -21 7 -8 8 -13 3 -12 -31 5 -74 -3 -74 -14 0 -25 107 -132 161
-161 65 -36 151 -44 306 -28 60 6 179 14 266 18 189 7 194 11 118 88 -28 28
-51 55 -51 59 0 11 32 -5 80 -39 25 -17 61 -39 80 -49 37 -18 221 -138 217
-141 -1 -1 -24 2 -52 7 -27 5 -135 12 -240 15 -232 8 -426 -15 -558 -65 -27
-10 -27 -11 -10 -33 46 -60 157 -157 222 -196 227 -134 564 -152 949 -51 141
38 155 40 165 30 43 -43 -112 -102 -487 -186 -87 -20 -221 -56 -298 -81 -76
-25 -147 -47 -158 -49 -12 -2 -44 -15 -73 -28 l-52 -24 46 -1 c41 0 110 -14
149 -29 29 -11 -33 -21 -142 -22 -88 -1 -120 -6 -180 -27 -86 -31 -278 -122
-278 -133 0 -4 46 -30 103 -58 106 -53 238 -98 320 -109 l48 -7 117 120 c149
153 306 260 509 348 32 13 49 18 38 9 -31 -24 -213 -136 -288 -179 -80 -44
-171 -125 -224 -198 -20 -29 -50 -66 -66 -83 -16 -18 -24 -34 -19 -38 5 -3 34
-8 64 -12 67 -8 116 14 172 76 21 23 39 40 41 38 2 -2 -5 -23 -16 -47 -27 -61
-25 -71 14 -71 51 0 210 36 262 59 26 12 49 21 51 21 11 0 0 -34 -37 -120 -42
-97 -72 -221 -84 -346 l-7 -70 92 4 c103 5 147 -11 57 -21 -111 -11 -162 -63
-153 -155 2 -30 12 -64 20 -77 l16 -24 26 24 c14 13 32 21 40 18 15 -6 29 -46
20 -61 -9 -14 19 -114 48 -171 55 -106 176 -209 303 -257 36 -14 70 -23 74
-22 5 2 -6 24 -24 50 -55 76 -94 176 -121 303 -28 140 -33 191 -22 261 7 47 5
54 -27 101 -69 103 -118 276 -99 346 8 28 7 39 -4 48 -23 19 -64 100 -85 170
-25 83 -16 129 35 178 43 42 105 52 171 27 48 -19 75 -43 34 -31 -17 5 -9 -7
31 -44 l55 -50 -59 19 c-79 27 -136 26 -171 -2 -26 -20 -27 -25 -22 -77 3 -31
15 -82 26 -113 l22 -57 34 15 c64 26 139 16 194 -27 l26 -21 -36 7 c-51 9
-145 -12 -170 -38 -18 -19 -20 -30 -14 -77 10 -85 25 -140 58 -205 45 -91 41
-90 109 -35 34 27 81 56 106 65 48 16 128 20 136 7 2 -4 -31 -25 -74 -46 -86
-41 -162 -101 -186 -148 -25 -49 -5 -87 99 -182 51 -47 109 -98 129 -113 20
-15 55 -43 78 -61 22 -19 40 -31 40 -28 0 4 -16 39 -36 79 -55 109 -85 193
-100 287 -20 120 -17 126 17 35 16 -44 40 -104 54 -133 14 -29 25 -55 25 -58
0 -7 113 -234 131 -261 13 -21 69 -56 77 -48 2 2 -12 39 -32 83 -20 44 -36 92
-36 108 0 63 155 168 310 210 51 14 102 18 235 18 148 0 178 -3 233 -22 133
-45 281 -142 297 -193 5 -14 -8 -49 -39 -109 -25 -49 -43 -91 -38 -93 4 -3 25
6 48 19 37 22 50 42 131 202 87 170 133 283 133 326 1 19 1 20 11 3 14 -24 -4
-138 -36 -223 -14 -36 -47 -106 -75 -155 -27 -49 -50 -94 -50 -101 0 -7 21 8
48 33 26 25 72 65 102 88 73 56 172 153 205 200 33 48 28 74 -27 136 -29 33
-67 59 -140 95 -82 40 -96 50 -81 58 25 13 119 0 173 -25 25 -11 64 -41 88
-66 23 -26 44 -47 46 -47 8 0 87 183 101 235 21 82 19 106 -10 137 -32 35 -58
41 -146 36 l-70 -4 27 21 c58 43 131 56 194 33 41 -14 54 0 71 81 18 83 14
133 -12 154 -31 25 -112 23 -158 -5 l-36 -21 45 47 c25 26 37 44 28 40 -35
-13 -17 16 22 36 61 31 121 27 165 -11 34 -30 35 -34 35 -100 l0 -68 53 -25
c113 -53 206 -67 417 -64 l193 3 -50 60 c-90 107 -206 229 -248 260 -22 16
-105 62 -183 102 -79 40 -141 73 -137 73 23 0 140 -36 211 -66 46 -19 92 -34
103 -34 24 0 28 -17 6 -22 -10 -2 25 -38 92 -95 59 -51 128 -115 152 -143 23
-28 61 -63 82 -77 35 -23 46 -25 97 -20 101 11 285 83 358 142 l28 22 -98 47
c-191 91 -364 146 -466 146 -19 0 -41 4 -48 9 -18 11 18 21 78 21 27 0 40 4
35 9 -28 27 -315 112 -670 200 -179 44 -261 72 -299 102 -64 50 -18 55 142 14
203 -51 302 -65 447 -67 256 -2 462 66 622 203 46 40 129 137 122 143 -11 7
-249 47 -344 57 -128 14 -433 6 -465 -11 -11 -6 -28 -10 -37 -8 -10 2 7 21 48
53 202 158 266 205 282 205 17 0 17 -1 0 -31 -10 -17 -45 -56 -78 -85 l-60
-54 55 0 c30 0 102 -4 160 -10 375 -34 467 -32 561 15 43 22 89 69 78 80 -6 6
-59 13 -101 14 -64 2 -42 18 31 24 115 10 177 49 251 157 39 57 74 130 66 137
-25 25 -316 40 -446 24 -107 -14 -233 -45 -300 -74 -48 -21 -142 -48 -147 -43
-7 6 92 133 156 200 126 132 319 251 495 305 98 30 103 26 14 -13 -125 -55
-226 -123 -333 -227 l-99 -97 227 -7 c280 -9 466 2 498 31 66 60 148 312 137
425 -11 112 -93 134 -301 80 -174 -45 -582 -213 -614 -252 -6 -8 -18 -39 -26
-69 -9 -31 -27 -66 -41 -79 l-25 -23 19 71 c10 39 14 73 10 76 -16 10 -371
-183 -785 -428 -214 -126 -334 -192 -340 -185 -1 2 -16 30 -34 63 -35 67 -125
178 -149 183 -8 2 -46 -27 -84 -65 -71 -70 -75 -66 -24 27 93 173 178 289 310
428 197 206 390 326 631 391 100 28 120 41 147 95 39 81 -7 166 -90 166 -148
0 -427 -163 -628 -366 -202 -204 -362 -436 -531 -769 -78 -154 -96 -185 -107
-185 -5 0 -4 6 1 13 6 6 18 35 27 63 9 28 41 109 71 179 44 102 52 131 43 142
-18 22 -93 57 -188 89 -80 27 -95 28 -265 29 -198 0 -275 -13 -390 -65 -85
-39 -100 -52 -86 -76 6 -10 18 -37 27 -59 9 -22 35 -87 58 -145 89 -219 64
-212 -39 10 -114 246 -225 432 -353 591 -83 103 -280 293 -381 368 -163 120
-381 203 -461 174z m-735 -650 c71 -36 193 -119 238 -162 22 -20 73 -81 114
-136 41 -55 83 -111 94 -124 25 -34 17 -38 -26 -12 -20 11 -46 23 -58 25 -12
3 -65 20 -117 40 -53 19 -137 42 -188 51 -51 9 -92 21 -92 25 0 10 127 19 212
15 l68 -3 -19 27 c-38 52 -187 190 -245 226 -32 21 -92 53 -132 71 -41 18 -74
36 -74 38 0 8 169 -53 225 -81z m529 -230 c55 -36 170 -103 255 -148 86 -45
220 -116 297 -157 169 -90 324 -193 324 -217 -1 -46 -15 -43 -166 35 -82 42
-153 80 -159 84 -5 4 -32 17 -60 29 -50 21 -50 21 -25 0 77 -63 207 -160 293
-217 104 -69 109 -82 32 -82 -60 0 -252 53 -320 88 -151 76 -363 268 -511 462
-75 98 -184 261 -184 275 0 3 28 -15 63 -40 34 -25 107 -76 161 -112z m3751
25 c5 -61 -212 -342 -368 -476 -176 -152 -332 -221 -497 -222 l-65 0 25 23
c14 13 61 47 105 77 44 30 112 79 150 109 39 31 96 74 128 95 31 22 55 41 53
43 -2 2 -66 -29 -142 -70 -302 -163 -312 -167 -330 -149 -15 15 -14 18 17 45
74 63 228 159 553 344 188 107 345 198 350 203 12 12 19 5 21 -22z m-2529
-419 c103 -63 289 -323 344 -485 21 -60 14 -74 -35 -74 -80 0 -215 74 -278
152 -99 124 -137 214 -137 325 0 111 26 131 106 82z m1312 -24 c35 -102 -33
-281 -152 -400 -92 -92 -165 -129 -258 -132 l-67 -2 29 81 c57 157 224 396
324 465 69 47 106 43 124 -12z m-1518 -279 c25 -167 130 -321 296 -433 64 -44
71 -55 99 -158 9 -33 24 -68 33 -78 34 -38 3 -22 -78 39 -170 130 -269 245
-320 374 -30 76 -60 235 -60 319 0 95 14 143 18 61 1 -30 7 -86 12 -124z
m1647 9 c-7 -92 -48 -227 -102 -335 -40 -80 -152 -203 -271 -300 l-71 -57 8
46 c20 117 36 143 131 214 101 75 160 141 206 233 51 101 70 167 79 268 6 74
7 78 16 46 5 -19 7 -71 4 -115z m-2057 -115 c-113 -28 -241 -48 -229 -36 9 9
158 46 224 55 117 16 119 9 5 -19z m1202 -75 c40 -8 86 11 131 53 l27 26 -6
-34 c-5 -28 -33 -99 -51 -131 -2 -3 27 -16 64 -29 121 -41 143 -56 143 -93 0
-64 -125 -259 -234 -367 l-56 -54 -46 44 c-116 112 -234 294 -234 360 0 54 56
93 172 120 l58 13 -24 22 c-31 28 -61 89 -70 139 l-7 39 49 -51 c34 -35 60
-53 84 -57z m1448 76 l75 -19 -50 0 c-27 -1 -99 10 -160 23 l-110 25 85 -5
c47 -3 119 -13 160 -24z m-2300 -241 c0 -5 -8 -7 -17 -4 -10 3 1 -11 23 -33
45 -42 147 -172 123 -158 -7 5 -36 23 -64 40 -114 73 -169 69 -208 -13 -28
-57 -42 -62 -56 -19 -15 46 0 115 31 139 49 38 168 72 168 48z m1819 0 c49
-14 107 -57 120 -88 5 -15 13 -43 16 -63 6 -31 2 -41 -25 -73 -18 -20 -35 -36
-39 -36 -3 0 -6 23 -6 51 0 45 -4 54 -33 80 -18 16 -43 29 -56 29 -14 0 -55
-21 -93 -46 -107 -72 -110 -71 -42 16 109 139 106 135 86 127 -11 -4 -16 -3
-12 3 8 13 41 13 84 0z m-584 -158 c-10 -34 -22 -65 -27 -68 -6 -4 -8 1 -5 12
3 11 8 37 11 59 4 22 12 60 19 84 l12 45 3 -35 c2 -19 -4 -62 -13 -97z m-722
51 c8 -32 18 -76 21 -98 l6 -40 -25 51 c-27 55 -44 144 -28 144 5 0 17 -26 26
-57z m-528 -350 c0 -1 23 9 50 23 43 22 59 25 109 20 81 -8 163 -54 237 -134
66 -71 73 -96 10 -39 -22 20 -57 45 -78 56 -84 42 -255 54 -289 19 -31 -31 8
-154 88 -281 42 -66 30 -69 -19 -5 -67 88 -92 151 -143 358 -26 110 -25 118 7
45 15 -33 27 -61 28 -62z m1813 55 c-6 -18 -25 -85 -42 -149 -40 -144 -72
-211 -139 -286 -28 -33 -79 -93 -113 -134 -34 -41 -86 -92 -117 -112 -57 -38
-168 -89 -221 -101 -27 -7 -27 -5 21 51 118 138 185 266 230 440 23 88 29 50
8 -51 -27 -135 -95 -289 -144 -327 -13 -11 -22 -22 -19 -25 8 -7 125 83 233
180 128 113 189 218 202 343 l6 53 -39 16 c-81 34 -199 3 -286 -75 -54 -48
-60 -44 -22 14 42 63 65 85 118 112 75 38 141 41 210 10 l56 -26 15 25 c8 13
22 35 30 49 21 34 26 31 13 -7z m-1067 -134 c32 -25 78 -56 101 -69 39 -22 43
-23 72 -8 46 23 161 119 212 177 41 47 43 48 23 13 -41 -72 -227 -237 -268
-237 -6 0 -44 23 -86 51 -78 53 -156 132 -188 191 -15 26 -9 22 28 -20 26 -29
74 -73 106 -98z m-357 -304 c40 -116 109 -236 179 -315 27 -30 45 -55 40 -55
-43 2 -201 78 -259 126 -48 39 -130 156 -139 199 -6 27 -1 24 54 -36 49 -54
175 -160 229 -193 8 -4 -2 14 -22 41 -73 102 -137 286 -135 387 l1 51 9 -52
c5 -28 24 -97 43 -153z m802 89 c113 -20 163 -65 136 -123 -6 -12 -20 -43 -32
-69 -15 -32 -27 -46 -36 -43 -71 27 -193 41 -364 41 -160 0 -199 -3 -287 -24
-56 -13 -108 -21 -116 -18 -8 3 -25 38 -38 76 -21 70 -22 72 -3 93 40 45 98
60 268 69 89 5 177 11 196 13 52 5 206 -3 276 -15z m-886 -358 c0 -5 -10 -15
-23 -24 -13 -8 -39 -38 -58 -66 -18 -28 -37 -51 -42 -51 -11 0 1 47 26 105 32
75 34 77 68 59 16 -8 29 -18 29 -23z m1247 -15 c12 -24 25 -61 29 -82 l6 -39
-27 40 c-15 22 -39 53 -54 68 -25 28 -26 29 -7 43 28 20 30 19 53 -30z M4376
2329 c-32 -90 -49 -129 -61 -139 -11 -9 -13 -26 -9 -69 9 -82 -40 -240 -109
-354 -28 -45 -29 -50 -19 -106 11 -59 6 -124 -19 -251 -20 -104 -52 -183 -106
-263 l-54 -79 37 7 c190 35 394 271 394 456 0 48 9 53 50 27 32 -19 34 -19 47
-2 16 23 33 80 33 116 0 71 -34 103 -131 119 -106 18 -96 31 20 27 l104 -4 -6
91 c-8 110 -47 268 -83 334 -33 62 -81 110 -88 90z M2296 1331 c21 -114 34
-152 88 -261 77 -158 168 -275 404 -526 136 -144 225 -262 279 -368 l35 -69
42 86 c54 109 130 210 272 362 305 327 447 553 502 802 12 50 17 52 -98 -36
-46 -36 -87 -64 -90 -61 -3 3 -6 -6 -8 -20 -9 -89 -61 -215 -121 -297 -34 -47
-65 -61 -33 -16 22 33 52 117 52 149 0 51 -153 147 -299 186 -112 31 -313 30
-436 -1 -129 -33 -275 -112 -311 -167 -15 -22 -14 -29 10 -101 14 -42 24 -78
22 -80 -2 -2 -19 20 -38 49 -50 76 -78 158 -78 228 0 56 -2 60 -29 75 -16 8
-63 41 -104 74 l-74 59 13 -67z m946 -436 c40 -9 91 -27 114 -40 52 -31 106
-84 101 -99 -2 -6 -25 -11 -52 -11 l-49 0 -39 -70 c-22 -38 -65 -110 -96 -160
-32 -49 -72 -116 -90 -148 l-33 -58 -20 38 c-11 21 -58 99 -103 173 -45 74
-92 154 -104 178 -21 42 -22 42 -76 42 -62 0 -68 10 -34 54 73 92 296 139 481
101z"/>
</g>
</svg>
