<svg xmlns="http://www.w3.org/2000/svg" version="1.0" viewBox="0 0 619 498" fill="currentColor">
  <path d="m148 13-4 3c-5 4-4 13 2 18l15 6c21 6 35 14 52 29 13 12 29 32 38 52q7 13-4 1l-6-6-3 3-9 11c-7 10-7 10-9 10l-10-6C127 85 76 60 45 53c-20-5-25-5-29-1-3 3-3 3-3 11 0 12 7 31 13 36q3 3 23 7l10 1-14 1-15 2c-3 2 14 22 20 23l4 2v1q-6-1-7 1c0 3 11 13 16 16q9 6 31 3l26-2c19 0 20-1 12-8l-5-6q0-2 8 4l8 4 22 15-5-1-24-2q-36 0-56 7-4 1-1 3c4 6 15 16 22 20q35 20 95 5c14-4 15-4 16-3q8 6-48 18l-53 16-5 3h4q7 0 15 3 3 2-14 2c-9 0-12 0-18 3-9 3-28 12-28 13l10 6q18 8 32 11h5l12-12a152 152 0 0 1 55-35l-29 17q-13 8-23 20l-6 9q-3 2-2 3l6 2q10 1 17-8l5-4-2 5q-5 8 1 7a109 109 0 0 0 32-8l-4 12q-6 15-8 35l-1 7 9-1c10 0 15 1 6 2q-16 2-16 16l2 8 2 2 3-3q2-2 4-1 3 1 2 6c-1 1 2 11 4 17a60 60 0 0 0 38 28q1-1-2-5-9-12-12-30c-3-14-4-20-3-27q2-4-2-10c-7-10-12-27-10-34q2-4-1-5-4-5-8-17-5-11 3-18 7-6 18-3 8 5 3 3-3 0 3 5l6 5-6-2q-12-4-17 0-4 2-3 8l3 11 2 6 4-2q10-3 19 3l3 2-4-1c-5 0-15 2-17 4q-3 2-1 8 1 11 5 20c5 10 4 9 11 4l11-7c5-1 13-2 13 0l-7 4q-14 7-19 15-4 6 10 18l13 12 8 6 4 3-4-8q-7-16-10-29-3-18 2-3l8 19 13 26c1 2 7 5 8 5l-3-9-4-11c0-6 16-16 31-21l24-1c14 0 17 0 23 2 13 4 28 14 30 19l-4 11-4 9 5-2c3-2 5-4 13-20q13-26 13-32 0-3 1-1c2 3 0 14-3 23l-8 15-5 10 5-3 10-9c7-5 17-15 21-20q5-6-3-13-4-5-14-10-12-5-8-6c2-1 12 0 17 3l9 6 4 5 11-23c2-9 1-11-1-14-4-4-6-4-15-4l-7 1 3-2q9-7 19-4 5 3 7-8 3-12-1-15c-3-3-11-3-16 0l-3 2 4-4 3-4q-5 0 2-4 9-5 17 1c3 3 3 3 3 10v7l5 2c12 6 21 7 42 7l19-1-5-6-24-26-32-17 21 7 10 3q4 1 1 2-2 1 9 10l23 22q4 3 10 2c10-1 28-9 36-15l2-2-9-4a129 129 0 0 0-52-16q-2-2 8-2l4-1c-3-3-32-11-67-20q-26-6-30-10-10-8 14-2c20 6 30 7 45 7q38 1 62-20l12-14-34-6a212 212 0 0 0-51 2l5-6 28-20q3-1 0 3l-7 9-6 5h5l16 1c38 3 47 3 56-2q8-4 8-8l-10-1q-9-1 3-2 16 0 25-16l7-14a131 131 0 0 0-75 5l-15 5 16-20c13-14 32-26 49-31q15-5 2 1-19 9-33 23l-10 10h22q44 1 50-3c7-6 15-31 14-42q0-17-30-8c-18 4-58 21-62 25l-2 7-4 8-3 2 2-7 1-8c-2-1-37 19-78 43l-34 19-4-7c-3-6-12-17-15-18l-8 7q-10 10-3-3 13-24 31-43 28-29 64-39c10-3 12-4 14-9q5-15-9-17c-15 0-42 16-63 37q-29 28-53 76c-7 16-9 19-10 19v-1l2-7 8-18q6-14 4-14l-19-9c-8-2-9-2-26-3-20 0-28 2-39 7q-12 5-9 8l3 5 5 15q13 32-3-1-17-36-36-59c-8-10-28-29-38-37-16-12-38-20-46-17M75 78c7 3 19 12 23 16l12 13 9 13q4 5-2 1l-6-2-12-4c-5-2-14-5-19-5l-9-3c0-1 13-2 21-1h7l-2-3c-4-5-19-19-24-22l-14-8-7-3zm52 23a396 396 0 0 0 56 30c17 9 32 19 32 22 0 4-1 4-17-4l-21-11q-7-3-3 0l29 22q15 9 4 8c-6 0-26-5-32-9-16-7-37-27-52-46-7-10-18-26-18-28l6 4zm376-3c0 6-22 34-37 48q-27 22-50 22h-6l2-2q3-3 11-8l33-25-15 7c-30 17-31 17-33 15q-2-1 2-4c8-7 23-16 55-35l35-20q2-2 3 2m-253 42c10 6 28 32 34 49q3 8-3 7c-8 0-22-7-28-15q-15-18-14-33 0-16 11-8m131 2c3 11-3 29-15 41q-14 13-26 13h-7l3-8c6-16 22-40 32-47q10-6 13 1m-152 28q5 27 30 44c6 4 7 5 10 16q1 5 3 7 4 6-8-4a90 90 0 0 1-32-37c-3-8-6-23-6-32s1-14 2-6zm165 0q-2 15-10 33c-4 8-16 20-28 30l-7 6 1-5c2-12 4-14 13-21q14-11 21-24c5-10 7-16 8-26q0-11 1-5zm-206 11c-11 3-24 5-23 4l23-6q17-3 0 2m120 8q7 0 13-6l3-2-1 3c0 3-3 10-5 13l7 3c12 4 14 6 14 9 0 7-12 26-23 37l-6 5-5-4c-11-11-23-29-23-36q0-7 17-12l6-1-2-3q-5-4-7-13l-1-4 5 5q5 5 8 5m145-8 8 2h-5l-16-2-11-3 8 1zm-230 24h-2q-1 1 3 4l12 16-6-4q-17-11-21 1-4 8-6 2-2-9 3-14c5-4 17-7 17-5m182 0q9 3 12 9l2 6q1 4-3 7l-4 4v-5c0-5-1-5-4-8l-5-3-10 5q-15 11-4-2c11-14 11-13 9-13h-1zm-58 16-3 7-1-2 1-5 2-9 2-4v3zm-73-5 2 10 1 4-2-6c-3-5-5-14-3-14zm-52 35 5-3q4-2 10-2 14 2 24 14 10 11 1 4l-8-6c-8-4-25-5-29-2-3 3 1 16 9 28q6 10-2 1c-6-9-9-15-14-36q-4-16 1-4zm181-6-4 15c-4 15-8 21-14 29l-12 13-11 11c-6 4-17 9-22 10q-5 3 2-5 17-18 23-44 3-11 1 5c-3 14-10 29-15 33l-2 3 24-18q18-17 20-35v-5l-4-2q-13-4-28 8-8 7-2-2 5-8 11-11 12-5 21-1l6 3 2-3 3-4q3-6 1 0m-107 14 10 7q5 3 7 0c5-2 17-12 22-17l2-2c-4 8-23 24-27 24l-8-5q-13-9-19-19-3-4 3 2zm-36 30q7 19 18 32l4 5c-4 0-20-8-26-13-4-4-13-15-13-20l5 4c5 6 17 16 23 19l-2-4c-8-10-14-28-14-38v-5l1 5zm81-9q17 4 13 12l-3 7q-2 6-4 5-10-4-36-4c-16 0-20 0-29 2l-11 2-4-8c-2-7-2-7 0-9 4-5 9-6 26-7l20-1c5-1 21 0 28 1m-89 36-2 2-6 7-4 5 2-10q4-10 7-6 3 0 3 2m125 1 3 9v4l-2-4-6-7q-3-3-1-5 3-4 6 3m61-52-6 14q-3 1-1 7c1 8-4 24-11 35-3 5-3 5-2 11q1 7-2 25-2 15-11 26l-5 8 4-1c19-3 39-27 39-45q0-7 5-3 3 3 5 0l3-11q1-10-13-12-16-3 2-3l10 1v-10c-1-11-5-26-9-33q-6-10-8-9M230 365c2 11 3 15 8 26 8 16 17 28 41 53q19 21 28 36l3 7 4-8q7-15 28-37c30-32 44-55 50-80 1-5 2-5-10 4l-9 6-1 2c-1 9-6 22-12 30q-6 7-3 1c2-3 5-11 5-15 0-5-15-14-30-18-11-3-31-3-44 0-12 3-27 11-31 17q-2 1 1 10l3 8-4-5q-8-12-8-23 1-7-3-7l-10-8-8-6zm94 43 12 5q9 6 10 9l-5 1-5 1-4 7-19 30-3 6-2-4-21-35q-1-5-7-4-9 1-4-5c7-10 30-14 48-10"/>
</svg>
